<?xml version="1.0" encoding="UTF-8" standalone="no"?>
<svg id="svg4136" xmlns:rdf="http://www.w3.org/1999/02/22-rdf-syntax-ns#" xmlns="http://www.w3.org/2000/svg" height="1987" viewBox="0 0 1691 1987" width="1691" version="1.1" xmlns:cc="http://creativecommons.org/ns#" xmlns:dc="http://purl.org/dc/elements/1.1/">
<path id="path4146" d="m726 1983.5c-398.48-1.2091-724.61-2.265-724.75-2.3464-1.7736-1.0505 7.3537-12.681 13.929-17.75 13.036-10.1 34.575-19.9 58.82-26.9l12.5-3.6196 74.5-1.3687c68.486-1.2583 75.186-1.5321 83-3.392 51.271-12.204 91.762-6.8306 124.25 16.489 23.584 16.927 36.428 13.381 38.591-10.654l0.6573-7.3041 6-2.4256c31.906-12.899 66.35-13.11 107-0.6542 19.736 6.0472 47.875 13.179 55.326 14.022l5.9429 0.6723 13.639-7.6988c35.97-20.304 107.99-52.451 130.02-58.042 33.507-8.4998 53.282-1.4869 71.927 25.508 9.1114 13.192 7.8606 12.606 41.64 19.519 62.846 12.862 97.316 22.312 135 37.009 30.53 11.907 41.795 11.38 63.065-2.9504 19.055-12.839 21.373-13.718 92.672-35.18l38.515-11.594 7.1244 6.8431c3.9183 3.7638 11.624 11.17 17.124 16.458l10 9.6148 85.5 10.637c84.733 10.541 86.867 10.753 238 23.648 83.875 7.1565 153.62 13.166 155 13.354 5.5334 0.7579-265.2 0.2296-955-1.8634zm556.93-84.537c23.618-18.669 11.565-38.614-25.435-42.088-34.922-3.2791-151.44 12.666-253 34.621-6.05 1.3079-11.298 2.0701-11.662 1.6937-0.8414-0.8698-92.717-172.62-92.476-172.87 0.25321-0.2647 54.739 7.8573 88.638 13.213 314.32 49.66 477.89 112.35 425.77 163.18l-4.2721 4.1669-57.154 1.063c-31.435 0.5846-61.288 1.063-66.34 1.063h-9.1857l5.1145-4.0428zm-455.93-31.631c0.0412-3.6793 14.082-134.75 14.477-135.15 0.28259-0.2826 0.51379 0.4204 0.51379 1.5623 0 10.951 42.869 72.141 86.1 122.9l7.7835 9.1382-26.192 0.5932c-69.068 1.564-82.691 1.7216-82.682 0.9561zm-365.97-175.5c-52.424-68.395-96.029-125.18-96.9-126.2-4.3575-5.0761 35.032-60.216 72.977-102.16 179.34-198.22 466-269.8 759.42-189.62l4 1.093 70.193 114.24c38.606 62.831 70.04 114.39 69.852 114.58-0.1874 0.1874-3.4243-1.2077-7.1932-3.1003-48.4-24.3-124.6-47-188.4-56.1-255.51-36.6-462.28 91.9-585.13 363.8l-3.5496 7.8539-95.317-124.35zm955 70.9c-38.987-34.236-148.91-63.803-300.41-80.804-14.798-1.6607-26.991-3.1369-27.096-3.2804-0.1048-0.1436-16.732-43.011-36.948-95.261-20.217-52.25-36.961-95.501-37.209-96.114-0.2479-0.6128 0.8114-1.3833 2.3541-1.7123 97.268-20.748 179.81-10.965 262.76 31.142 15.997 8.1206 44.334 25.817 47.556 29.699 1.3807 1.6638 94.194 219.63 93.711 220.08-0.1231 0.1132-2.2488-1.5724-4.7238-3.7458zm-1089.8-319.5c-56.789-112.41-81.928-209.14-68.249-262.62 6.557-25.638 72.476-96.485 130.08-139.8 170.96-128.59 383.34-154.29 616.97-74.68l24.5 8.3488 60.818 109.81c33.45 60.396 60.607 110.02 60.349 110.28-0.2581 0.258-7.8263-0.4424-16.818-1.5564-347.01-42.991-651.52 57.168-787.99 259.19l-8.6434 12.795-11.011-21.795zm-66.923-377.99c-1.5207-5.4481-0.75065-66.742 1.0591-84.302 24.472-237.43 172.11-415.46 422.11-508.96 26.779-10.016 34.541-12.449 35.777-11.212 1.4594 1.4594 257.66 433.6 257.29 433.98-0.16421 0.16923-5.5685-1.2899-12.009-3.2425-101.21-30.68-232.93-35.68-343.6-13.05-133.59 27.33-243.18 84.4-354.13 184.38l-5.718 5.1553-0.78198-2.8015zm409.38-670.51c-9.2689-83.178-47.283-131.95-162.32-208.25-11.634-7.7171-21.984-14.595-23-15.284-3.6263-2.459 23.501 0.87046 43.439 5.3316 91.036 20.369 168.39 79.69 193.22 148.17 1.2461 3.4375 2.3979 6.25 2.5595 6.25 0.16161 0 4.4888-1.1267 9.616-2.5037 113.91-30.594 218.36-5.0513 258.2 63.141 6.8718 11.762 6.686 12.026-3.6706 5.2111-47.85-31.49-104.06-37.66-185.21-20.32-39.496 8.4393-58.681 14.7-129.06 42.115-0.69261 0.26978-2.011-8.0754-3.7712-23.871zm150.34-252.21c0-49.405-25.55-85.613-92.2-130.66-18.24-12.319-18.23-12.473 0.27-9.3078 56.13 9.5998 105.36 45.843 120.19 88.484 0.50284 1.4454 1.2472 1.4181 7.8957-0.28937 65.876-16.918 126.84-0.97197 146.97 38.444 2.3513 4.6045 2.2533 4.6073-4.7333 0.13803-36.183-23.146-89.157-20.943-160.54 6.6743-7.3442 2.8415-14.366 5.5537-15.603 6.0272-1.2375 0.47353-2.25 0.69603-2.25 0.49446z"/>
</svg>
